Coordinates
version=1
nRows=29
nColumns=24
inDegrees=yes

Units are S.I. units (second, meters, Newtons, ...)
If the header above contains a line with 'inDegrees', this indicates whether rotational values are in degrees (yes) or radians (no).

endheader
time	pelvis_tilt	pelvis_list	pelvis_rotation	pelvis_tx	pelvis_ty	pelvis_tz	hip_flexion_r	hip_adduction_r	hip_rotation_r	knee_angle_r	ankle_angle_r	subtalar_angle_r	mtp_angle_r	hip_flexion_l	hip_adduction_l	hip_rotation_l	knee_angle_l	ankle_angle_l	subtalar_angle_l	mtp_angle_l	lumbar_extension	lumbar_bending	lumbar_rotation
      1.04666667	      7.06920834	      1.35462597	      2.08906632	     -0.12064098	      0.73224932	      0.27237010	     27.08280174	     -3.82434306	     -8.85365381	    -37.41699981	      5.02149639	    -10.24208499	      0.00000000	     -9.27840454	      3.13541194	     -5.17461152	    -15.24463415	     19.17305139	     -5.05416609	      0.00000000	    -15.94118612	     -3.73884737	      2.93068788
      1.05333333	      6.73846999	      1.70345032	      2.08994656	     -0.11343453	      0.73058503	      0.27235304	     27.24064269	     -4.03844627	     -9.08696885	    -34.63263455	      5.11258892	     -9.93899910	      0.00000000	     -9.51193519	      3.49850937	     -5.31432200	    -15.33251209	     19.44004421	     -5.10957396	      0.00000000	    -15.67362743	     -4.13871355	      3.00377697
      1.06000000	      6.71987076	      1.52600210	      2.43226312	     -0.10595790	      0.72953979	      0.27239373	     26.60076818	     -3.73304202	     -9.76335659	    -31.27805958	      5.68189984	     -8.80129444	      0.00000000	    -10.07268533	      3.17723573	     -5.05264495	    -15.46650676	     19.91696313	     -4.99975347	      0.00000000	    -15.76891003	     -3.83688139	      2.98265929
      1.06666667	      6.59929746	      1.59895770	      2.66357422	     -0.09849657	      0.72821677	      0.27231853	     26.23699957	     -3.74120492	    -10.53877712	    -28.24907308	      6.25590532	     -7.44734554	      0.00000000	    -10.51536145	      3.15718141	     -4.96961486	    -15.62536913	     20.33495177	     -4.76002248	      0.00000000	    -15.75393732	     -3.84704748	      2.82492116
      1.07333333	      6.42333692	      1.75175869	      2.85920560	     -0.09100180	      0.72673907	      0.27224961	     25.99904354	     -3.83785577	    -11.38520352	    -25.45166490	      7.02661195	     -5.60075426	      0.00000000	    -10.87392185	      3.22804437	     -4.92294861	    -15.84097383	     20.78921820	     -4.35713230	      0.00000000	    -15.66332184	     -3.95181572	      2.62293241
      1.08000000	      6.21022775	      1.80137490	      2.92727229	     -0.08350895	      0.72522076	      0.27252444	     25.74734034	     -3.62957099	    -11.89034154	    -22.59093780	      7.23110192	     -4.64608848	      0.00000000	    -11.15826371	      3.19851035	     -4.98152108	    -16.12371858	     21.07981466	     -4.37553341	      0.00000000	    -15.52101776	     -3.96965955	      2.71381951
      1.08666667	      5.98298501	      1.90433208	      2.98827203	     -0.07596156	      0.72367848	      0.27286881	     25.54775063	     -3.45276073	    -12.35601269	    -19.95230095	      7.42074746	     -3.68198251	      0.00000000	    -11.44247447	      3.21937550	     -4.97533436	    -16.39809069	     21.33980236	     -4.30472211	      0.00000000	    -15.36492289	     -4.08393965	      2.73640296
      1.09333333	      5.95982729	      1.87393469	      3.29551846	     -0.06803183	      0.72237567	      0.27289360	     25.11814947	     -3.36731909	    -13.74490578	    -17.64313417	      8.24874453	     -1.43741016	      0.00000000	    -11.93085911	      2.99604667	     -5.00754820	    -16.72981087	     21.86018243	     -3.64358154	      0.00000000	    -15.39637524	     -3.93617756	      2.40786622
      1.10000000	      5.75495777	      1.90643952	      3.32947022	     -0.06024512	      0.72085720	      0.27331658	     24.95923476	     -3.07608384	    -14.19818772	    -15.52983103	      8.33449314	     -0.64131471	      0.00000000	    -12.19880639	      2.92523410	     -5.09510870	    -17.10845739	     22.04276844	     -3.65922611	      0.00000000	    -15.22848133	     -3.93888258	      2.49281521
      1.10666667	      5.68323090	      1.82856317	      3.50207973	     -0.05224134	      0.71954753	      0.27372459	     24.63142225	     -2.73780012	    -14.99749236	    -13.66448348	      8.53943872	      0.45208555	      0.00000000	    -12.60369688	      2.66144494	     -5.12265540	    -17.50704604	     22.27902083	     -3.43404444	      0.00000000	    -15.19748758	     -3.80340668	      2.41194036
      1.11333333	      5.46531979	      1.92608172	      3.49774080	     -0.04429329	      0.71802869	      0.27415725	     24.63011642	     -2.51721285	    -15.26880047	    -12.29847745	      8.66354983	      0.99004405	      0.00000000	    -12.86917062	      2.67060945	     -5.12419868	    -17.89611124	     22.36152253	     -3.36325617	      0.00000000	    -14.98687958	     -3.86614744	      2.38975063
      1.12000000	      5.30574746	      1.97830449	      3.47533077	     -0.03623456	      0.71664294	      0.27475973	     24.66030245	     -2.26126265	    -15.60569243	    -11.35592285	      8.75316246	      1.32791815	      0.00000000	    -13.19180307	      2.60812939	     -5.15578584	    -18.29673474	     22.39131170	     -3.33202959	      0.00000000	    -14.84443967	     -3.94501196	      2.36989708
      1.12666667	      5.21197252	      2.02359632	      3.39118312	     -0.02806695	      0.71532929	      0.27513391	     24.79616410	     -2.05469784	    -15.73281234	    -11.05191454	      8.77214554	      1.43969816	      0.00000000	    -13.61183674	      2.60072853	     -5.07138389	    -18.70667586	     22.36374910	     -3.29917246	      0.00000000	    -14.72559377	     -3.89794164	      2.34215051
      1.13333333	      5.32164489	      1.56487520	      4.06327025	     -0.01943905	      0.71461596	      0.27538350	     24.19850335	     -1.56137624	    -17.12815647	    -10.24928604	      9.10457578	      3.03197873	      0.00000000	    -13.87304638	      1.63919643	     -4.93017055	    -19.73435632	     22.57887355	     -2.30855817	      0.00000000	    -14.81747105	     -3.23181471	      1.64850745
      1.14000000	      5.24702531	      1.46189637	      4.11233077	     -0.01104966	      0.71355915	      0.27585938	     24.26863445	     -1.27409218	    -17.32891404	    -10.35992602	      9.05446817	      3.08644759	      0.00000000	    -14.12403800	      1.35034297	     -4.92673959	    -20.46305022	     22.30714193	     -2.17527440	      0.00000000	    -14.69442828	     -3.03371916	      1.55984492
      1.14666667	      5.20389767	      1.33654880	      4.22463079	     -0.00257514	      0.71268048	      0.27627821	     24.31703878	     -1.01089278	    -17.46006943	    -10.73150143	      8.86070793	      2.86475489	      0.00000000	    -14.36320308	      1.01544448	     -4.80857166	    -21.26250000	     21.94074009	     -2.00031990	      0.00000000	    -14.60881045	     -2.79818654	      1.32968757
      1.15333333	      5.24311748	      1.24034431	      4.20124947	      0.00607764	      0.71198039	      0.27672422	     24.33124116	     -0.77056280	    -17.32076728	    -11.40134472	      8.70759381	      2.77103571	      0.00000000	    -14.79080055	      0.79071694	     -4.58790579	    -21.91720015	     21.61623235	     -1.91144120	      0.00000000	    -14.58110652	     -2.58759212	      1.24907683
      1.16000000	      5.12003678	      1.04822377	      4.53632395	      0.01439348	      0.71123347	      0.27709795	     24.50715931	     -0.53142485	    -17.31316495	    -12.13554879	      7.79395775	      1.30147393	      0.00000000	    -14.52535972	      0.24191479	     -4.50982594	    -23.38667859	     20.79872995	     -1.71905241	      0.00000000	    -14.41289815	     -2.27910541	      0.64716654
      1.16666667	      5.23958012	      0.88774576	      4.54412001	      0.02330931	      0.71089589	      0.27746242	     24.47030964	     -0.29981380	    -17.01867567	    -13.21160393	      7.52228637	      1.07736858	      0.00000000	    -14.94431689	     -0.08113928	     -4.29270725	    -24.18395797	     20.18046974	     -1.56649747	      0.00000000	    -14.42430311	     -1.94372115	      0.54998301
      1.17333333	      5.13167496	      0.64993413	      4.71444303	      0.03177636	      0.71043711	      0.27809339	     24.60258329	      0.11393304	    -16.25235015	    -14.04328069	      5.94493903	     -1.61613917	      0.00000000	    -14.62066270	     -0.65707669	     -4.34443097	    -25.74803014	     18.95570434	     -1.30136916	      0.00000000	    -14.23359231	     -1.62938158	      0.10958748
      1.18000000	      5.32969152	      0.46486447	      4.74468200	      0.04072079	      0.71042858	      0.27848447	     24.50307847	      0.34197968	    -15.79518781	    -15.32180725	      5.64784230	     -1.74612280	      0.00000000	    -14.96031076	     -1.02375866	     -4.07925557	    -26.76977281	     18.17610516	     -1.14877730	      0.00000000	    -14.31894440	     -1.26254449	      0.00134218
      1.18666667	      5.07545482	      0.19231194	      4.94518417	      0.04901233	      0.71006818	      0.27929580	     24.83969647	      0.80165300	    -14.79542669	    -16.30298556	      3.72878688	     -4.98205296	      0.00000000	    -14.12438515	     -1.69234550	     -4.20481457	    -28.81989465	     16.28319862	     -1.00739534	      0.00000000	    -13.96572974	     -0.99040905	     -0.57298625
      1.19333333	      5.28353175	      0.02210763	      4.99567685	      0.05784383	      0.71032863	      0.27975142	     24.72311136	      1.01720256	    -14.27301157	    -17.61593033	      3.37952859	     -5.38034459	      0.00000000	    -14.05691423	     -2.17156186	     -4.36279696	    -30.44618266	     14.60019157	     -0.78569029	      0.00000000	    -14.08380393	     -0.65342410	     -0.77026307
      1.20000000	      5.12183637	     -0.25837320	      5.16815363	      0.06619498	      0.71030827	      0.28049333	     24.94092580	      1.47375920	    -13.16473156	    -18.67738340	      1.94451215	     -7.81607312	      0.00000000	    -13.23844692	     -2.80609012	     -4.32992588	    -32.52236216	     12.78436608	     -0.74103997	      0.00000000	    -13.82011836	     -0.30567260	     -1.20267300
      1.20666667	      5.13772378	     -0.54656209	      5.26995533	      0.07476444	      0.71063220	      0.28129550	     24.91413058	      1.94496329	    -12.23213828	    -19.71804839	      1.09332430	     -9.42474163	      0.00000000	    -12.61036676	     -3.47343922	     -4.45433101	    -34.54461333	     10.68180574	     -0.60719485	      0.00000000	    -13.72041046	      0.05514455	     -1.51782031
      1.21333333	      5.27490121	     -0.80590419	      5.34120226	      0.08346473	      0.71120628	      0.28207888	     24.75007339	      2.33952854	    -11.57325033	    -20.84786581	      1.06485836	     -9.93803887	      0.00000000	    -12.08748298	     -4.13391018	     -4.66391733	    -36.53024272	      8.35538108	     -0.41324648	      0.00000000	    -13.73848371	      0.39072988	     -1.75517346
      1.22000000	      5.13577514	     -1.10273491	      5.56222904	      0.09163031	      0.71156422	      0.28285229	     24.83941929	      2.80946440	    -10.70252666	    -21.77985171	      0.22451329	    -11.83825834	      0.00000000	    -10.91141333	     -4.82487439	     -4.59671712	    -38.92905254	      5.96794682	     -0.75404458	      0.00000000	    -13.50262220	      0.74148000	     -2.21477034
      1.22666667	      5.25117508	     -1.38373018	      5.64782329	      0.10021264	      0.71234303	      0.28372525	     24.56113713	      3.27766033	    -10.07437504	    -22.67930343	      0.41571720	    -12.44218797	      0.00000000	    -10.11732108	     -5.55321638	     -4.81982258	    -41.09443549	      3.40267125	     -0.70352284	      0.00000000	    -13.49198463	      1.07074022	     -2.43418404
      1.23333333	      5.30885850	     -1.64604757	      5.77298507	      0.10854880	      0.71312624	      0.28457491	     24.30861452	      3.71964333	     -9.55007112	    -23.49661547	      0.67525700	    -13.12111347	      0.00000000	     -9.09053145	     -6.25650851	     -4.93663209	    -43.40704813	      0.82436169	     -0.86900171	      0.00000000	    -13.45424951	      1.36815524	     -2.67164165
